<?xml version="1.0" standalone="no"?>
<!DOCTYPE svg PUBLIC "-//W3C//DTD SVG 20010904//EN"
 "http://www.w3.org/TR/2001/REC-SVG-20010904/DTD/svg10.dtd">
<svg version="1.0" xmlns="http://www.w3.org/2000/svg"
 width="800.000000pt" height="800.000000pt" viewBox="0 0 800.000000 800.000000"
 preserveAspectRatio="xMidYMid meet">

<g transform="translate(0.000000,800.000000) scale(0.100000,-0.100000)"
fill="#000000" stroke="none">
<path d="M0 4000 l0 -4000 4000 0 4000 0 0 4000 0 4000 -4000 0 -4000 0 0
-4000z m2749 3320 c78 -7 108 -15 170 -46 132 -65 241 -197 271 -327 39 -174
39 -1573 0 -1787 -24 -131 -131 -263 -271 -334 -67 -33 -88 -39 -180 -46 -57
-5 -461 -9 -896 -10 l-793 0 -92 46 c-165 83 -278 231 -299 391 -5 37 -12 331
-15 653 -7 627 4 999 32 1106 33 128 130 241 262 306 76 38 92 42 185 48 160
11 1521 11 1626 0z m4134 -37 c151 -77 256 -201 287 -336 31 -138 39 -1471 10
-1722 -20 -180 -120 -316 -297 -408 l-91 -47 -794 0 c-436 1 -839 5 -895 9
-81 7 -116 15 -165 38 -134 63 -242 180 -278 302 -28 94 -40 360 -40 926 0
469 11 807 30 907 25 130 191 315 314 350 51 14 527 24 1269 26 l559 2 91 -47z
m-856 -2589 c5 -13 -81 -250 -144 -393 l-23 -54 -23 20 c-38 35 -91 63 -120
63 -59 0 -415 -170 -637 -305 -477 -289 -855 -655 -1172 -1135 -144 -219 -169
-288 -124 -353 22 -32 34 -67 23 -67 -1 0 -100 -25 -220 -55 -119 -30 -222
-55 -227 -55 -6 0 -10 6 -10 13 0 14 149 399 393 1012 232 585 326 808 346
826 19 15 75 31 531 151 239 62 1319 333 1360 341 14 2 29 5 33 6 4 0 10 -6
14 -15z m-118 -699 c48 -55 118 -138 155 -184 62 -77 66 -84 49 -96 -10 -7
-117 -64 -238 -127 -237 -123 -391 -217 -550 -333 -342 -250 -609 -531 -876
-920 -139 -203 -135 -199 -152 -192 -33 12 -407 448 -407 473 0 8 7 29 16 47
31 60 223 337 300 433 204 253 568 590 802 741 176 114 560 321 662 358 35 13
35 13 93 -44 33 -31 98 -101 146 -156z m524 -439 c197 -94 394 -252 439 -352
17 -38 22 -67 22 -129 -1 -151 11 -136 -680 -836 -254 -257 -480 -490 -503
-519 -70 -89 -56 -107 89 -109 218 -4 373 73 510 254 21 28 66 105 100 172 73
145 117 198 199 242 149 79 338 51 466 -70 83 -78 100 -122 99 -249 -1 -129
-19 -202 -84 -335 -55 -113 -110 -192 -223 -323 -191 -218 -397 -359 -632
-431 -160 -49 -220 -56 -455 -56 -184 1 -230 4 -317 23 -131 28 -254 72 -373
132 l-95 48 -128 -126 -127 -127 -232 233 -233 232 127 127 127 128 -45 95
c-65 138 -105 256 -111 333 -6 64 -4 69 24 105 16 20 74 102 128 182 197 289
348 474 531 650 279 268 538 442 1018 683 218 109 184 107 359 23z m-3683
-236 c76 -8 109 -17 165 -45 80 -39 158 -104 208 -173 61 -83 68 -122 79 -472
12 -387 4 -1368 -12 -1460 -18 -104 -51 -165 -135 -246 -111 -108 -152 -125
-328 -134 -190 -11 -1402 -12 -1588 -1 -130 7 -153 11 -202 35 -71 35 -195
149 -229 213 -51 93 -53 132 -53 1013 0 1008 -4 975 141 1117 106 105 191 145
328 153 166 11 1522 11 1626 0z"/>
<path d="M1209 6863 l-97 -4 -7 -132 c-9 -165 -1 -1424 9 -1454 6 -14 19 -23
44 -27 59 -10 1295 -19 1434 -11 l127 7 8 36 c7 35 8 1571 1 1578 -6 5 -1411
12 -1519 7z m1208 -570 c-4 -141 -7 -364 -7 -495 l0 -238 -490 0 -490 0 0 238
c0 131 -3 354 -7 495 l-6 257 503 0 503 0 -6 -257z"/>
<path d="M5189 6863 l-97 -4 -7 -132 c-9 -165 -1 -1424 9 -1454 6 -14 19 -23
44 -27 59 -10 1295 -19 1434 -11 l127 7 8 36 c8 35 8 1570 1 1578 -6 5 -1410
12 -1519 7z m1228 -570 c-4 -141 -7 -364 -7 -495 l0 -238 -500 0 -500 0 0 485
0 485 23 5 c35 8 162 11 591 13 l399 2 -6 -257z"/>
<path d="M5563 2895 c-155 -42 -316 -175 -386 -318 -45 -92 -60 -170 -55 -292
2 -61 8 -116 12 -123 14 -22 92 46 361 313 245 244 385 395 385 414 0 24 -234
28 -317 6z"/>
<path d="M1185 2861 l-70 -6 -6 -65 c-9 -90 -10 -806 -2 -1212 l6 -338 809 0
808 0 0 808 0 809 -362 6 c-409 8 -1078 6 -1183 -2z m1235 -813 l0 -501 -212
6 c-116 4 -339 7 -495 7 l-283 0 0 485 c0 267 1 486 3 486 13 8 312 16 615 17
l372 2 0 -502z"/>
</g>
</svg>
