<?xml version="1.0" standalone="no"?>
<!DOCTYPE svg PUBLIC "-//W3C//DTD SVG 20010904//EN"
 "http://www.w3.org/TR/2001/REC-SVG-20010904/DTD/svg10.dtd">
<svg version="1.0" xmlns="http://www.w3.org/2000/svg"
 width="512.000000pt" height="512.000000pt" viewBox="0 0 512.000000 512.000000"
 preserveAspectRatio="xMidYMid meet">

<g transform="translate(0.000000,512.000000) scale(0.100000,-0.100000)"
fill="#000000" stroke="none">
<path d="M2315 5029 c-485 -45 -933 -223 -1325 -527 -107 -83 -305 -281 -394
-392 -287 -362 -467 -793 -527 -1260 -16 -124 -16 -459 -1 -580 62 -470 251
-919 533 -1267 428 -526 1040 -851 1719 -912 639 -58 1294 148 1797 566 479
397 794 977 874 1608 16 128 17 462 1 585 -75 569 -315 1064 -712 1460 -393
394 -896 640 -1450 710 -122 15 -398 20 -515 9z m-290 -853 c66 -30 120 -91
139 -157 23 -78 23 -840 0 -918 -19 -66 -73 -127 -139 -157 -50 -24 -50 -24
-490 -24 l-440 0 -51 24 c-63 29 -120 95 -139 160 -23 75 -22 839 1 915 19 66
73 127 139 157 50 24 50 24 490 24 440 0 440 0 490 -24z m1990 0 c66 -30 120
-91 139 -157 23 -76 24 -840 1 -915 -19 -65 -76 -131 -139 -160 l-51 -24 -440
0 c-440 0 -440 0 -490 24 -66 30 -120 91 -139 157 -24 79 -23 840 0 920 19 63
97 148 154 166 23 7 182 11 475 12 l440 1 50 -24z m-429 -1303 c-19 -52 -80
-209 -83 -212 -2 -3 -13 5 -26 17 -13 12 -35 22 -49 22 -38 0 -268 -117 -389
-198 -207 -139 -366 -299 -510 -516 -82 -123 -92 -155 -62 -188 9 -10 14 -21
10 -24 -8 -8 -230 -64 -235 -59 -5 4 357 916 369 928 7 9 930 244 963 246 13
1 16 -4 12 -16z m-51 -350 c55 -64 100 -120 100 -124 0 -4 -54 -34 -120 -67
-299 -148 -530 -348 -712 -619 -41 -62 -78 -113 -82 -112 -7 0 -204 226 -209
239 -4 12 81 142 153 235 84 108 260 275 375 357 91 65 357 209 383 207 6 0
57 -52 112 -116z m259 -212 c86 -42 169 -106 205 -157 27 -39 28 -111 2 -162
-11 -20 -155 -172 -320 -337 -332 -331 -320 -312 -200 -314 126 -2 226 68 289
204 41 87 66 116 122 140 84 34 186 5 239 -68 25 -34 29 -49 29 -103 0 -119
-67 -243 -204 -380 -135 -135 -294 -198 -501 -197 -120 1 -237 28 -337 79
l-51 26 -63 -63 -64 -64 -117 118 -118 117 64 64 64 64 -21 44 c-50 103 -74
200 -52 213 5 3 40 51 76 106 188 286 395 471 704 628 85 44 159 80 164 80 5
1 46 -17 90 -38z m-1769 -135 c28 -12 65 -40 84 -61 68 -78 66 -63 66 -555 0
-492 2 -478 -65 -554 -18 -20 -52 -47 -74 -59 -40 -22 -47 -22 -501 -22 -454
0 -461 0 -501 22 -22 12 -56 39 -74 59 -67 76 -65 62 -65 554 0 492 -2 477 66
555 19 21 56 49 84 61 50 24 50 24 490 24 440 0 440 0 490 -24z"/>
<path d="M1127 3963 c-4 -3 -7 -182 -7 -398 0 -291 3 -394 12 -403 14 -14 774
-17 796 -4 9 7 12 95 10 408 l-3 399 -401 3 c-220 1 -403 -1 -407 -5z m651
-400 l-3 -248 -245 0 -245 0 -3 248 -2 247 250 0 250 0 -2 -247z"/>
<path d="M3117 3963 c-4 -3 -7 -182 -7 -398 0 -291 3 -394 12 -403 14 -14 774
-17 796 -4 9 7 12 95 10 408 l-3 399 -401 3 c-220 1 -403 -1 -407 -5z m661
-400 l-3 -248 -250 0 -250 0 -3 235 c-1 129 0 240 2 247 4 10 63 13 256 13
l250 0 -2 -247z"/>
<path d="M3306 1965 c-110 -53 -176 -154 -176 -266 0 -37 3 -75 6 -84 5 -13
49 25 195 171 127 127 184 191 176 196 -7 4 -43 8 -82 8 -53 -1 -82 -6 -119
-25z"/>
<path d="M1125 1958 c-3 -7 -4 -191 -3 -408 l3 -395 405 0 405 0 0 405 0 405
-403 3 c-317 2 -404 0 -407 -10z m655 -398 l0 -250 -247 2 -248 3 -3 235 c-1
129 0 240 2 247 4 10 62 13 251 13 l245 0 0 -250z"/>
</g>
</svg>
